<svg xmlns="http://www.w3.org/2000/svg" viewBox="0 0 900 400">
<defs>
  <linearGradient id="bg" x1="0" y1="0" x2="0" y2="1"><stop offset="0%" stop-color="#0e0e0e"/><stop offset="100%" stop-color="#050505"/></linearGradient>
  <linearGradient id="bd" x1="0.1" y1="0" x2="0.1" y2="1"><stop offset="0%" stop-color="#e0e0e0"/><stop offset="30%" stop-color="#c5c5c5"/><stop offset="65%" stop-color="#909090"/><stop offset="100%" stop-color="#606060"/></linearGradient>
  <radialGradient id="gs" cx="50%" cy="100%" r="55%"><stop offset="0%" stop-color="rgba(0,0,0,0.7)"/><stop offset="100%" stop-color="rgba(0,0,0,0)"/></radialGradient>
  <radialGradient id="wg" cx="35%" cy="30%" r="60%"><stop offset="0%" stop-color="#888"/><stop offset="50%" stop-color="#555"/><stop offset="100%" stop-color="#2a2a2a"/></radialGradient>
</defs>
<rect width="900" height="400" fill="url(#bg)"/>
<ellipse cx="455" cy="343" rx="340" ry="15" fill="url(#gs)"/>
<!-- Coupe: lower than sedan, more fastback roofline -->
<path d="M762,330 L765,272 L752,240 L722,212 L690,198 C660,190 625,170 580,148 L532,122 L498,100 L360,95 L258,112 L228,150 L220,182 L198,220 L170,265 L145,330 Z" fill="url(#bd)" stroke="#222" stroke-width="1.5"/>
<!-- Long roofline highlight -->
<path d="M762,272 L752,240 L722,212 L690,198 C660,190 625,170 580,148 L532,122 L498,100 L360,95 L258,112" fill="none" stroke="rgba(255,255,255,0.27)" stroke-width="3" stroke-linecap="round"/>
<!-- Large single window (coupe has big glass area) -->
<path d="M534,125 L500,102 L362,97 L262,113 L234,150 L242,157 L368,145 L528,148 Z" fill="rgba(80,110,145,0.55)" stroke="rgba(120,160,200,0.3)" stroke-width="1"/>
<path d="M234,150 L242,157 L228,185 L218,183 L222,160 Z" fill="rgba(80,110,145,0.45)" stroke="rgba(120,160,200,0.3)" stroke-width="1"/>
<!-- Wheels -->
<circle cx="222" cy="330" r="54" fill="#111" stroke="#1a1a1a" stroke-width="2"/>
<circle cx="222" cy="330" r="41" fill="url(#wg)"/>
<circle cx="222" cy="330" r="11" fill="#1a1a1a"/>
<g transform="translate(222,330)">
  <line x1="0" y1="-41" x2="0" y2="-13" stroke="#bbb" stroke-width="4" stroke-linecap="round"/>
  <line x1="0" y1="-41" x2="0" y2="-13" stroke="#bbb" stroke-width="4" stroke-linecap="round" transform="rotate(72)"/>
  <line x1="0" y1="-41" x2="0" y2="-13" stroke="#bbb" stroke-width="4" stroke-linecap="round" transform="rotate(144)"/>
  <line x1="0" y1="-41" x2="0" y2="-13" stroke="#bbb" stroke-width="4" stroke-linecap="round" transform="rotate(216)"/>
  <line x1="0" y1="-41" x2="0" y2="-13" stroke="#bbb" stroke-width="4" stroke-linecap="round" transform="rotate(288)"/>
</g>
<circle cx="698" cy="330" r="54" fill="#111" stroke="#1a1a1a" stroke-width="2"/>
<circle cx="698" cy="330" r="41" fill="url(#wg)"/>
<circle cx="698" cy="330" r="11" fill="#1a1a1a"/>
<g transform="translate(698,330)">
  <line x1="0" y1="-41" x2="0" y2="-13" stroke="#bbb" stroke-width="4" stroke-linecap="round"/>
  <line x1="0" y1="-41" x2="0" y2="-13" stroke="#bbb" stroke-width="4" stroke-linecap="round" transform="rotate(72)"/>
  <line x1="0" y1="-41" x2="0" y2="-13" stroke="#bbb" stroke-width="4" stroke-linecap="round" transform="rotate(144)"/>
  <line x1="0" y1="-41" x2="0" y2="-13" stroke="#bbb" stroke-width="4" stroke-linecap="round" transform="rotate(216)"/>
  <line x1="0" y1="-41" x2="0" y2="-13" stroke="#bbb" stroke-width="4" stroke-linecap="round" transform="rotate(288)"/>
</g>
<path d="M764,265 L757,250 L742,242 L732,250 L732,263 L746,270 Z" fill="rgba(255,255,220,0.9)"/>
<path d="M147,266 L155,252 L168,252 L171,268 L158,276 Z" fill="rgba(200,30,30,0.9)"/>
</svg>
