<svg xmlns="http://www.w3.org/2000/svg" viewBox="0 0 900 400">
<defs>
  <linearGradient id="bg" x1="0" y1="0" x2="0" y2="1"><stop offset="0%" stop-color="#0e0e0e"/><stop offset="100%" stop-color="#050505"/></linearGradient>
  <linearGradient id="bd" x1="0.1" y1="0" x2="0.1" y2="1"><stop offset="0%" stop-color="#e0e0e0"/><stop offset="25%" stop-color="#c8c8c8"/><stop offset="55%" stop-color="#808080"/><stop offset="100%" stop-color="#484848"/></linearGradient>
  <radialGradient id="gs" cx="50%" cy="100%" r="55%"><stop offset="0%" stop-color="rgba(0,0,0,0.7)"/><stop offset="100%" stop-color="rgba(0,0,0,0)"/></radialGradient>
  <radialGradient id="wg" cx="35%" cy="30%" r="60%"><stop offset="0%" stop-color="#888"/><stop offset="50%" stop-color="#555"/><stop offset="100%" stop-color="#2a2a2a"/></radialGradient>
</defs>
<rect width="900" height="400" fill="url(#bg)"/>
<ellipse cx="455" cy="340" rx="352" ry="13" fill="url(#gs)"/>
<!-- AMG ONE hypercar: extremely low, F1-inspired, long nose, active aero -->
<path d="M820,330 L825,315 L815,295 L790,270 L755,252 L700,238 L620,225 L545,218 L490,210 C455,202 415,175 368,150 L310,128 L260,116 L210,114 L175,122 L152,140 L140,165 L128,198 L120,240 L112,285 L110,330 Z" fill="url(#bd)" stroke="#222" stroke-width="1.5"/>
<!-- Active rear wing -->
<rect x="108" y="190" width="8" height="55" rx="2" fill="rgba(180,180,180,0.8)"/>
<path d="M85,185 L128,195 L128,200 L85,192 Z" fill="rgba(200,200,200,0.7)" stroke="#444" stroke-width="1"/>
<!-- Hood highlight (very long) -->
<path d="M820,315 L815,295 L790,270 L755,252 L700,238 L620,225 L545,218 L490,210 C455,202 415,175 368,150 L310,128 L260,116" fill="none" stroke="rgba(255,255,255,0.3)" stroke-width="3" stroke-linecap="round"/>
<!-- F1-style canopy window -->
<path d="M495,210 C460,202 420,177 372,152 L316,130 L268,118 L215,115 L178,123 L158,140 L162,148 L216,124 L268,127 L314,140 L370,164 L488,220 Z" fill="rgba(80,110,145,0.6)" stroke="rgba(120,160,200,0.35)" stroke-width="1"/>
<!-- Air intakes on side -->
<path d="M550,218 L560,212 L580,215 L578,225 L558,228 Z" fill="#1a1a1a" stroke="#444" stroke-width="1"/>
<path d="M460,210 L470,204 L488,208 L486,218 L468,220 Z" fill="#1a1a1a" stroke="#444" stroke-width="1"/>
<!-- Wheels (wide, low profile) -->
<circle cx="185" cy="330" r="48" fill="#111" stroke="#1a1a1a" stroke-width="2"/>
<circle cx="185" cy="330" r="37" fill="url(#wg)"/>
<circle cx="185" cy="330" r="10" fill="#1a1a1a"/>
<g transform="translate(185,330)">
  <line x1="0" y1="-37" x2="0" y2="-12" stroke="#bbb" stroke-width="4" stroke-linecap="round"/>
  <line x1="0" y1="-37" x2="0" y2="-12" stroke="#bbb" stroke-width="4" stroke-linecap="round" transform="rotate(60)"/>
  <line x1="0" y1="-37" x2="0" y2="-12" stroke="#bbb" stroke-width="4" stroke-linecap="round" transform="rotate(120)"/>
  <line x1="0" y1="-37" x2="0" y2="-12" stroke="#bbb" stroke-width="4" stroke-linecap="round" transform="rotate(180)"/>
  <line x1="0" y1="-37" x2="0" y2="-12" stroke="#bbb" stroke-width="4" stroke-linecap="round" transform="rotate(240)"/>
  <line x1="0" y1="-37" x2="0" y2="-12" stroke="#bbb" stroke-width="4" stroke-linecap="round" transform="rotate(300)"/>
</g>
<circle cx="745" cy="330" r="48" fill="#111" stroke="#1a1a1a" stroke-width="2"/>
<circle cx="745" cy="330" r="37" fill="url(#wg)"/>
<circle cx="745" cy="330" r="10" fill="#1a1a1a"/>
<g transform="translate(745,330)">
  <line x1="0" y1="-37" x2="0" y2="-12" stroke="#bbb" stroke-width="4" stroke-linecap="round"/>
  <line x1="0" y1="-37" x2="0" y2="-12" stroke="#bbb" stroke-width="4" stroke-linecap="round" transform="rotate(60)"/>
  <line x1="0" y1="-37" x2="0" y2="-12" stroke="#bbb" stroke-width="4" stroke-linecap="round" transform="rotate(120)"/>
  <line x1="0" y1="-37" x2="0" y2="-12" stroke="#bbb" stroke-width="4" stroke-linecap="round" transform="rotate(180)"/>
  <line x1="0" y1="-37" x2="0" y2="-12" stroke="#bbb" stroke-width="4" stroke-linecap="round" transform="rotate(240)"/>
  <line x1="0" y1="-37" x2="0" y2="-12" stroke="#bbb" stroke-width="4" stroke-linecap="round" transform="rotate(300)"/>
</g>
<!-- Laser-style headlight strip -->
<rect x="808" y="292" width="18" height="5" rx="2" fill="rgba(255,255,220,0.95)"/>
<rect x="808" y="300" width="14" height="4" rx="2" fill="rgba(255,255,220,0.7)"/>
<circle cx="816" cy="296" r="10" fill="rgba(255,255,200,0.15)"/>
<!-- Taillight (horizontal LED) -->
<rect x="108" y="268" width="8" height="22" rx="2" fill="rgba(200,30,30,0.9)"/>
</svg>
